<svg xmlns="http://www.w3.org/2000/svg" width="254" height="60" fill-rule="evenodd"><path fill="#00130f" d="M98.452 44.71c1.89 0 2.766 1.056 2.766 2.655v.95h-1.296v-1.01c0-.95-.438-1.524-1.436-1.524-.98 0-1.436.573-1.436 1.524v5.58c0 .95.455 1.524 1.436 1.524.998 0 1.436-.573 1.436-1.524v-1.373h1.296v1.312c0 1.6-.875 2.655-2.766 2.655-1.873 0-2.75-1.056-2.75-2.655v-5.46c0-1.6.875-2.655 2.75-2.655zm-13.894 0c1.89 0 2.766 1.056 2.766 2.655v.95h-1.296v-1.01c0-.95-.438-1.524-1.436-1.524-.98 0-1.436.573-1.436 1.524v5.58c0 .95.455 1.524 1.436 1.524.998 0 1.436-.573 1.436-1.524v-1.373h1.296v1.312c0 1.6-.875 2.655-2.766 2.655-1.873 0-2.75-1.056-2.75-2.655v-5.46c0-1.6.875-2.655 2.75-2.655zm44.295.106l2.346 10.56h-1.366l-.473-2.127h-3.1l-.473 2.127h-1.26l2.346-10.56h1.978zm-11.387 0l2.013 8.432 1.943-8.432h1.908v10.56h-1.296v-8.493l-1.943 8.478h-1.313l-2.03-8.402v8.417h-1.19v-10.56h1.908zm-3.183 0v1.07h-3.677v3.605h2.994v1.056h-2.994v3.756h3.677v1.07h-5.042v-10.56h5.042zm-24.476 0v7.874l1.26-3.334 1.786-4.54h1.523v10.56H93.15v-8.402l-1.313 3.5-1.82 4.903H88.6v-10.56h1.208zm18.26 0v1.07h-2.258v9.488h-1.366v-9.488h-2.258v-1.07h5.883zm19.718 1.327l-1.348 6.094h2.73l-1.383-6.094zM95.117 28.02v9.518h.928v2.49h-1.33V38.58h-5.007v1.448h-1.313v-2.49h.788c.42-.407.508-.9.543-1.54l.473-7.98h4.92zm97.357 0v9.488h3.01V28.02h1.383v9.518h.928v2.46h-1.33V38.58h-5.34V28.02h1.348zm16.482-.106c1.89 0 2.82 1.04 2.82 2.655v5.46c0 1.6-.928 2.655-2.82 2.655-1.873 0-2.8-1.056-2.8-2.655v-5.46c0-1.614.928-2.655 2.8-2.655zm-124.363 0c1.89 0 2.766 1.056 2.766 2.655v.272c0 1.086-.508 1.87-1.506 2.187 1.033.302 1.506 1.116 1.506 2.172v.83c0 1.6-.875 2.655-2.766 2.655-1.873 0-2.75-1.056-2.75-2.655v-1.026h1.278v1.086c0 .95.455 1.524 1.436 1.524.998 0 1.436-.558 1.436-1.614v-.83c0-1.026-.543-1.57-1.576-1.57h-.578v-1.056h.648c.9 0 1.506-.528 1.506-1.448v-.483c0-1.086-.438-1.63-1.436-1.63-.98 0-1.436.573-1.436 1.524v.71h-1.26v-.664c0-1.614.858-2.64 2.73-2.64zm43.087 0c1.89 0 2.82 1.04 2.82 2.655v5.46c0 1.6-.928 2.655-2.82 2.655-1.873 0-2.8-1.056-2.8-2.655v-5.46c0-1.614.928-2.655 2.8-2.655zm35.78 0c1.89 0 2.82 1.04 2.82 2.655v5.46c0 1.6-.928 2.655-2.82 2.655-1.873 0-2.8-1.056-2.8-2.655v-5.46c0-1.614.928-2.655 2.8-2.655zm24.066.106l2.346 10.56h-1.366l-.473-2.127h-3.1l-.473 2.127h-1.26l2.346-10.56h1.978zm12.73 0v7.874l1.26-3.334 1.786-4.54h1.523v10.56h-1.225v-8.402l-1.313 3.5-1.82 4.903h-1.418V28.02h1.208zm-81.092 0v4.752h3.01V28.02h1.366v10.56h-1.366v-4.752h-3.01v4.752H117.8V28.02h1.366zm-11.802 0l2.346 10.56h-1.366l-.473-2.127h-3.1l-.473 2.127h-1.26l2.346-10.56h1.978zm48.326 0v1.237h.858c1.96 0 2.836.965 2.836 2.64v2.88c0 1.674-.875 2.64-2.836 2.64h-.858v1.162h-1.348v-1.162h-.858c-1.96 0-2.836-.965-2.836-2.64v-2.88c0-1.674.875-2.64 2.836-2.64h.858V28.02h1.348zm65.937 0v4.752h3.01V28.02h1.366v10.56h-1.366v-4.752h-3.01v4.752h-1.366V28.02h1.366zm-107.972 0c1.908 0 2.66.784 2.66 2.338v.498c0 1.116-.368 1.8-1.436 2.097 1.19.287 1.646 1.1 1.646 2.263v.9c0 1.584-.893 2.474-2.8 2.474h-2.82V28.02h2.75zm62.486 0l2.013 8.432 1.943-8.432h1.908v10.56H180.7v-8.493l-1.943 8.478h-1.313l-2.03-8.402v8.417h-1.19V28.02h1.908zm-31.17 0v4.752h3.01V28.02h1.366v10.56h-1.366v-4.752h-3.01v4.752h-1.366V28.02h1.366zm69.505 0v4.752h3.01V28.02h1.366v10.56h-1.366v-4.752h-3.01v4.752H213.1V28.02h1.366zm17.04 0l2.346 10.56h-1.366l-.473-2.127h-3.1l-.473 2.127h-1.26l2.346-10.56h1.978zm-61.222 0c1.926 0 2.75.98 2.75 2.58v1.267c0 1.674-.9 2.55-2.854 2.55h-1.208v4.164h-1.366V28.02h2.68zm-70.3 0c1.926 0 2.75.98 2.75 2.58v1.267c0 1.674-.9 2.55-2.854 2.55H98.67v4.164h-1.366V28.02h2.68zm37.653 0v7.874l1.26-3.334 1.786-4.54h1.523v10.56h-1.225v-8.402l-1.313 3.5-1.82 4.903h-1.418V28.02h1.208zm71.32.965c-.98 0-1.453.573-1.453 1.524v5.58c0 .965.473 1.524 1.453 1.524.998 0 1.453-.558 1.453-1.524v-5.58c0-.95-.455-1.524-1.453-1.524zm-81.276 0c-.98 0-1.453.573-1.453 1.524v5.58c0 .965.473 1.524 1.453 1.524.998 0 1.453-.558 1.453-1.524v-5.58c0-.95-.455-1.524-1.453-1.524zm35.78 0c-.98 0-1.453.573-1.453 1.524v5.58c0 .965.473 1.524 1.453 1.524.998 0 1.453-.558 1.453-1.524v-5.58c0-.95-.455-1.524-1.453-1.524zm-69.728.106h-2.276l-.403 6.894c-.052.754-.175 1.207-.56 1.554h3.24V29.09zm19.728 4.48h-1.19v3.937h1.453c.998 0 1.453-.453 1.453-1.433v-.935c0-1.177-.543-1.57-1.716-1.57zm40.88-3.273h-.858c-1.033 0-1.488.513-1.488 1.524v3.032c0 1.01.455 1.54 1.488 1.54h.858v-6.094zm2.206 0h-.858v6.094h.858c1.033 0 1.506-.528 1.506-1.54v-3.032c0-1.01-.455-1.524-1.506-1.524zm73.9-.95l-1.348 6.094h2.73l-1.383-6.094zm-43.99 0l-1.348 6.094h2.73l-1.383-6.094zm-80.164 0l-1.348 6.094h2.73l-1.383-6.094zm28.74 3.41v1.07h-3.207v-1.07h3.207zm-35.05-3.666H98.67v4.27h1.208c1.016 0 1.506-.407 1.506-1.418V30.54c0-.965-.403-1.448-1.4-1.448zm70.3 0h-1.313v4.27h1.208c1.016 0 1.506-.407 1.506-1.418V30.54c0-.965-.403-1.448-1.4-1.448zm-56.675 0h-1.348v3.41h1.05c1.086 0 1.646-.302 1.646-1.403v-.618c0-.935-.368-1.388-1.348-1.388zM98.116 11.224v9.488h3.01v-9.488h1.383v9.518h.928v2.46h-1.33v-1.418h-5.34v-10.56h1.348zm16.482-.106c1.89 0 2.82 1.04 2.82 2.655v5.46c0 1.6-.928 2.655-2.82 2.655-1.873 0-2.8-1.056-2.8-2.655v-5.46c0-1.614.928-2.655 2.8-2.655zm25.476.106v10.56h-1.366v-9.488h-2.346l-.28 6.864c-.07 1.674-.595 2.625-2.47 2.64h-.228v-1.07c1.138 0 1.33-.498 1.366-1.508l.333-7.995h5zm-56.794 0v4.752h3.01v-4.752h1.366v10.56H86.29V17.03h-3.01v4.752h-1.366v-10.56h1.366zm59.6 0v4.752h3.01v-4.752h1.366v10.56h-1.366V17.03h-3.01v4.752h-1.366v-10.56h1.366zm9.9 0l2.346 10.56h-1.366l-.473-2.127h-3.1l-.473 2.127h-1.26l2.346-10.56h1.978zm-46.86 0v7.874l1.26-3.334 1.786-4.54h1.523v10.56h-1.225V13.38l-1.313 3.5-1.82 4.903h-1.418v-10.56h1.208zm-12.73 0l2.346 10.56H94.15l-.473-2.127h-3.1l-.473 2.127h-1.26l2.346-10.56h1.978zm26.948 0v4.752h3.01v-4.752h1.366v10.56h-1.366V17.03h-3.01v4.752h-1.366v-10.56h1.366zm9.9 0l2.346 10.56h-1.366l-.473-2.127h-3.1l-.473 2.127h-1.26l2.346-10.56h1.978zm-15.4.965c-.98 0-1.453.573-1.453 1.524v5.58c0 .965.473 1.524 1.453 1.524.998 0 1.453-.558 1.453-1.524v-5.58c0-.95-.455-1.524-1.453-1.524zm-22.496.362l-1.348 6.094h2.73l-1.383-6.094zm36.84 0l-1.348 6.094h2.73l-1.383-6.094zm22.752 0l-1.348 6.094h2.73l-1.383-6.094zM71.366 59.804h0c-.233 0-.422-.19-.422-.422V.53c0-.233.19-.422.422-.422s.422.19.422.422v58.852c0 .233-.19.422-.422.422"/><path fill="#a21618" d="M38.182 43.874V59.03c0 .56-.28.882-.686.882-.168 0-.358-.055-.56-.17h0l-6.962-4.024c-.33-.19-.647-.524-.88-.928h0l-1.332-2.3c-.233-.403-.55-.737-.88-.928h0l-1.002-.58 12.3-7.11zM55.98 24.91l4.54 2.623c.687.397.69 1.04.008 1.434h0l-13.112 7.578-7.508-4.34v-4.692l5.784 3.343 10.3-5.947z"/><path fill="#d01c1f" d="M39.907 34.198L45.7 37.54v17.15c0 .56-.28.882-.686.882-.168 0-.358-.055-.56-.17h0l-4.826-2.79V41.05l-5.783-3.343 6.07-3.51zm-34.85.43L20 43.267c.592.342 1.34.53 2.1.53.528 0 1.306-.088 2.043-.497l.053-.03 8.2-4.734 5.783 3.343-14.836 8.575c-.23.132-.506.22-.8.262-.143.02-.288.033-.435.033-.45 0-.903-.1-1.248-.3h0L.518 38.692c-.687-.397-.69-1.04-.008-1.434h0l4.547-2.628z"/><path fill="#009b75" d="M16.032 4.34c.168 0 .358.055.56.17h0l10.292 5.95c.196.113.387.17.56.17a.64.64 0 0 0 .321-.081h0l1.332-.76a.64.64 0 0 1 .321-.081c.075 0 .155.012.236.034a1.34 1.34 0 0 1 .323.137h0l6.962 4.024c.556.32 1.027 1.013 1.187 1.683a2.02 2.02 0 0 1 .058.466h0v15.156L15.346 18V5.22c0-.56.28-.882.686-.882zm31.353 6.922l13.134 7.59c.687.397.69 1.04.008 1.434h0l-13.112 7.578v-.532l-.008-8.285-.02-7.786z"/><path fill="#00664d" d="M15.346 20.004l22.835 13.198-14.856 8.585c-.275.154-.616.245-.97.273l-.244.01c-.45 0-.903-.1-1.248-.3h0L.518 30.013c-.687-.397-.69-1.04-.008-1.434h0l14.836-8.575zM23.54 0c.168 0 .358.055.56.17h0l10.292 5.95c.196.113.387.17.56.17a.64.64 0 0 0 .321-.081h0l1.332-.76a.64.64 0 0 1 .321-.081c.085 0 .176.014.27.042a1.39 1.39 0 0 1 .29.128h0l6.962 4.024c.687.397 1.245 1.36 1.245 2.15h0v17.15l-5.784-3.343v-9.467c0-.137-.01-.276-.025-.415-.15-1.283-.98-2.593-2.082-3.23h0l-6.962-4.024c-.455-.263-.947-.402-1.422-.402a2.37 2.37 0 0 0-1.175.308h0l-.837.478-4.55-2.63V.882c0-.56.28-.882.686-.882z"/></svg>